<svg xmlns="http://www.w3.org/2000/svg" viewBox="4 38 111 59.5" width="222" height="119" role="img" aria-label="Karvon"><title>Karvon</title><path d="M10 70C11 56 17 42 29 42C38 42 41 52 46 52C51 52 54 43 63 43C74 43 80 56 81 70Z" fill="#F5A623"/><rect x="8" y="70" width="80" height="11" rx="3" fill="#0F62A8"/><path d="M84 81V50Q84 45 89 45H99Q102 45 103.6 47.7L110.4 59.3Q111 60.4 111 62V77Q111 81 107 81Z" fill="#0F62A8"/><path d="M89 50H98.4L103.4 58.8H89Z" fill="#FFFFFF"/><circle cx="28" cy="84" r="9.5" fill="#0B1F35" stroke="#FFFFFF" stroke-width="3"/><circle cx="50" cy="84" r="9.5" fill="#0B1F35" stroke="#FFFFFF" stroke-width="3"/><circle cx="97" cy="84" r="9.5" fill="#0B1F35" stroke="#FFFFFF" stroke-width="3"/><circle cx="28" cy="84" r="3.2" fill="#FFFFFF"/><circle cx="50" cy="84" r="3.2" fill="#FFFFFF"/><circle cx="97" cy="84" r="3.2" fill="#FFFFFF"/></svg>
